<?xml version="1.0" standalone="no"?>
<!DOCTYPE svg PUBLIC "-//W3C//DTD SVG 20010904//EN"
 "http://www.w3.org/TR/2001/REC-SVG-20010904/DTD/svg10.dtd">
<svg version="1.0" xmlns="http://www.w3.org/2000/svg"
 width="26" height="26" viewBox="0 0 300.000000 168.000000"
 preserveAspectRatio="xMidYMid meet">

<g transform="translate(0.000000,168.000000) scale(0.100000,-0.100000)"
fill="#2D88FC" stroke="none">
<path d="M928 1641 l-33 -29 -3 -754 c-2 -552 1 -760 9 -781 7 -15 23 -37 37
-47 24 -19 43 -20 561 -20 480 0 539 2 560 16 51 36 51 41 51 656 l0 573 -207
207 -208 208 -367 0 -368 0 -32 -29z m922 -661 l0 -50 -350 0 -350 0 0 50 0
50 350 0 350 0 0 -50z m-2 -227 l3 -53 -350 0 -351 0 0 55 0 55 348 -2 347 -3
3 -52z m-190 -225 l3 -48 -255 0 -256 0 0 50 0 50 253 -2 252 -3 3 -47z"/>
</g>
</svg>
